PathFileType	4	(X/Y/Z)	C:\Users\WrightLab\Desktop\Jo\P1_boxCal23.trc
DataRate	CameraRate	NumFrames	NumMarkers	Units	OrigDataRate	OrigDataStartFrame	OrigNumFrames
100.00	100.00	       15	19	mm	100.00	263	       701
Frame#	Time	Headset_Front			Headset_Back			Headset_Left			Headset_Right			Left_Shoulder			Right_Shoulder			Sternum			C7			Left Elbow			Right Elbow			Left Wrist			Right Wrist			Left ASIS			Right ASIS			S2			Left Knee			Right Knee			Left Ankle			Right Ankle			
		X1	Y1	Z1	X2	Y2	Z2	X3	Y3	Z3	X4	Y4	Z4	X5	Y5	Z5	X6	Y6	Z6	X7	Y7	Z7	X8	Y8	Z8	X9	Y9	Z9	X10	Y10	Z10	X11	Y11	Z11	X12	Y12	Z12	X13	Y13	Z13	X14	Y14	Z14	X15	Y15	Z15	X16	Y16	Z16	X17	Y17	Z17	X18	Y18	Z18	X19	Y19	Z19	

263	2.620	-379.79459	137.14847	9.34142	-916.25140	1510.12341	1076.06604							-1099.71680	1270.59985	986.42157	-747.37048	1258.76221	1138.06091	-940.88031	1435.41846	926.39014	-980.20721	1285.09106	1162.03735	-1157.55408	950.02356	949.75970	-720.31836	998.97870	1256.69897	-1001.69824	888.51025	780.19531	-633.46027	780.41174	1275.70056				-789.42316	871.81305	990.40594	-976.53107	905.82239	1256.69263	-1113.02368	446.12634	1126.03577	-723.81732	484.13144	1013.38104	-1127.49341	113.36688	1300.18384				
264	2.630	-379.58163	137.65851	9.07764	-912.95044	1508.77087	1069.46240							-1096.11816	1268.80493	978.86285	-744.07532	1257.95581	1130.20032	-937.25940	1434.66711	919.41760	-976.59546	1283.08521	1154.46936	-1152.68762	948.11493	941.99792	-715.80847	998.23828	1247.46765	-995.75433	886.49402	773.18506	-628.81238	779.40247	1267.89514				-785.59076	870.95660	980.79681	-971.36493	903.82697	1248.04053	-1110.46143	444.10965	1122.73816	-720.12030	483.28635	1003.56042	-1126.81470	115.37576	1298.09277				
265	2.640	-379.58163	137.65851	9.07764	-909.28717	1507.14832	1062.78003							-1092.18384	1267.17322	971.24561	-740.55823	1257.06689	1122.37866	-933.17041	1433.54431	912.37958	-972.35004	1280.94434	1146.80139	-1147.67639	946.07013	934.37268	-711.85522	995.94470	1238.46545	-989.72034	884.31323	765.94891	-624.20154	778.29437	1259.67029				-781.23169	869.28662	972.32104	-966.58160	902.23529	1239.23535	-1107.43237	444.67535	1116.07837	-715.91486	480.97220	992.50732	-1126.34387	116.77688	1297.48938				
266	2.650	-379.58163	137.65851	9.07764	-905.40466	1505.61316	1056.01270							-1087.18323	1264.96423	963.84698	-735.57477	1255.79187	1114.84607	-929.10010	1432.67371	905.46051	-968.20276	1279.06628	1139.14661	-1142.39417	944.14233	926.53217	-707.39288	994.33929	1230.76099	-984.76855	883.56293	757.84235	-619.81177	777.63550	1251.04370				-777.26849	868.65564	961.85034	-961.45599	900.43683	1230.08276	-1104.47314	444.50882	1110.86682	-712.06342	479.99115	981.53931	-1125.66138	119.49969	1296.68616				
267	2.660	-380.82388	136.70576	9.91815	-901.80164	1504.34058	1049.26050							-1083.12891	1264.03345	955.98572	-731.04987	1254.05383	1107.25122	-925.27393	1431.83875	898.24670	-963.75366	1277.16162	1131.44861	-1137.41516	942.91974	918.39990	-702.65771	992.31415	1220.64636	-979.36975	882.51440	750.13354	-615.03564	776.38513	1241.79089				-772.83197	867.11798	952.25415	-955.90546	898.78442	1220.75232	-1100.43445	444.37219	1105.25647	-708.13159	478.33176	970.86664	-1125.25391	122.07648	1295.37927				
268	2.670	-743.17682	1335.86633	836.84772	-897.87610	1503.33215	1042.36438							-1077.79663	1262.65771	948.16644	-726.38849	1252.54065	1098.58997	-921.13269	1431.25256	891.28430	-958.87164	1275.33325	1123.67297	-1131.99316	941.43439	910.26416	-697.24518	990.76526	1212.46729	-973.64081	880.96649	742.08960	-610.08221	774.55518	1232.99402				-768.87891	866.38153	942.67828	-950.95471	897.74042	1210.95508	-1096.76416	443.33878	1100.39990	-704.12152	476.88373	959.93274	-1125.26855	124.86108	1293.17615				
269	2.680	-738.56683	1336.05615	828.47961	-894.13098	1502.68420	1035.34644							-1073.36401	1262.07288	940.26776	-721.19354	1251.92688	1091.32007	-917.00629	1430.66040	883.93353	-953.61707	1273.55115	1115.83276	-1127.07593	940.81744	901.77032	-693.75964	988.64960	1203.98340	-967.75653	879.65912	733.86047	-605.47632	773.25635	1224.15796				-763.25299	865.33228	932.03339	-944.60303	895.77838	1200.99023	-1092.03955	442.58939	1093.04968	-700.37390	474.06509	948.97601	-1124.86511	127.69073	1292.12048				
270	2.690	-733.75037	1336.96216	820.84540	-889.88251	1502.14160	1028.09583							-1068.48621	1261.52502	932.17126	-717.88806	1251.83765	1083.64075	-912.45520	1430.47205	876.52802	-948.51685	1272.18079	1107.98206	-1121.10303	939.24426	892.40106	-688.09259	987.24713	1195.45410	-962.44574	878.86462	725.97821	-600.34015	771.36078	1214.63171				-758.44434	865.17389	921.82874	-939.81494	895.54718	1190.84705	-1087.61499	441.64108	1085.13354	-696.32489	473.14075	937.34863	-1124.25378	131.52991	1288.42297				
271	2.700	-729.05444	1337.33667	813.33484	-885.47217	1502.06958	1020.67908	-704.45459	1382.88940	949.54688				-1063.07190	1261.26611	924.36646	-710.01611	1250.40735	1075.34387	-907.84814	1430.55432	869.00421	-942.95215	1271.08423	1099.99927	-1116.27893	939.12067	883.80707	-684.16724	985.63867	1184.85510	-957.37671	878.56995	717.15527	-595.16577	769.77673	1204.83655				-753.47577	863.90759	911.81030	-933.41687	894.29767	1180.64233	-1082.67261	441.64987	1076.48389	-692.11597	471.84064	927.36230	-1123.66809	135.47795	1285.06250				
272	2.710	-723.83740	1339.10266	804.65143	-880.75610	1502.16223	1013.01038	-698.80731	1383.94849	941.28644				-1057.54517	1261.48157	916.29840	-705.10016	1249.99939	1067.00073	-903.18439	1430.74280	861.19006	-937.22723	1270.31238	1091.93225	-1110.67932	939.18079	874.68158	-677.26062	984.32294	1178.05225	-951.86444	877.90887	708.47272	-590.63434	768.60040	1195.68091				-748.53345	864.58344	900.82123	-927.96722	893.91290	1170.58447	-1077.42078	439.75302	1068.58215	-688.08313	470.72055	917.21942							
273	2.720	-718.78351	1340.11829	797.18628	-875.91473	1502.50366	1005.21924	-694.39819	1385.24780	934.61987				-1052.35425	1261.79272	908.09216	-698.88330	1249.68396	1058.48560	-898.10736	1431.21497	853.33264	-931.38239	1270.05823	1083.76245	-1105.39563	939.19604	865.29645	-672.17377	984.68549	1168.52185	-946.11267	877.52588	700.21698	-585.19348	766.99670	1185.60315				-743.44244	865.33929	890.68567	-921.39185	893.29803	1160.61902	-1072.67297	439.97147	1058.82642	-684.13190	470.99594	907.95697							
274	2.730	-713.77197	1341.44519	788.27582	-871.01093	1503.17468	997.28070	-689.04352	1386.34607	924.68927				-1046.71912	1262.68762	899.73810	-692.68152	1249.70801	1050.16626	-893.40930	1432.05823	845.43774	-925.26227	1269.93140	1075.47327	-1099.99097	940.44537	856.35632	-666.33405	984.15161	1159.16345	-940.73633	877.34528	691.49237	-580.57648	766.37000	1175.51318				-737.40289	865.22833	879.94440	-916.41931	894.15491	1150.85388	-1067.94775	440.73407	1047.06494	-679.10101	471.61887	897.51813							
275	2.740	-708.47516	1343.44031	780.05847	-865.74884	1503.85242	989.22552	-680.21332	1390.29187	923.77606				-1040.66284	1262.99609	891.29291	-687.50061	1250.13721	1041.72852	-888.16193	1432.87439	837.38116	-919.70551	1270.65833	1067.22571	-1094.74280	941.14209	846.88623	-663.10706	982.88196	1148.81104	-934.69067	876.98480	682.68451	-575.89624	766.25732	1166.00610				-731.79303	867.04138	868.61261	-910.03137	894.33099	1141.07996	-1063.56372	439.54938	1033.62390	-674.39099	472.56119	888.48212							
276	2.750	-703.20148	1345.23608	770.85675	-861.03247	1504.96387	981.25677	-678.89325	1389.48914	908.79041				-1034.84424	1265.01709	882.85895	-680.69342	1250.35168	1031.44043	-883.46051	1433.95532	829.33289	-913.88953	1271.43567	1058.85742	-1089.08167	942.98895	837.47382	-655.85272	983.65131	1141.45813	-929.81049	877.81879	673.94342	-570.68652	765.66162	1155.11304				-726.27045	868.18195	859.68579	-904.64337	894.43616	1133.68420	-1059.37280	439.90604	1019.81445	-668.74506	474.23636	879.23492							
277	2.760	-697.97241	1347.06970	762.65204	-855.89337	1505.97595	973.23297	-672.55823	1392.39819	900.18127				-1028.93140	1266.84155	874.39825	-675.21637	1251.88831	1025.22961	-878.20819	1434.89685	821.27985	-908.37634	1272.41943	1050.51917	-1083.44885	944.77185	827.75397	-650.72803	985.38300	1130.42175	-924.22565	878.43646	664.93433	-565.39172	765.91260	1144.92126				-720.33539	869.84344	849.62549	-899.10510	895.99774	1122.02356	-1054.76599	440.72513	1005.16974	-662.79053	474.85007	870.04724							
